Sucker Punch is a 2011 action-fantasy thriller film, about the fantasies of a young woman who is committed to a mental institution. It was written by Steve Shibuya and Zack Snyder and directed by Snyder. The film features an ensemble cast starring Emily Browning as the central character (Babydoll)and Abbie Cornish as the second main character (Sweet Pea), as well as Oscar Isaac (Blue).The film was released in both conventional and IMAX theatres in the US at midnight on March 25, 2011.A young girl is institutionalized by her wicked stepfather. Retreating to an alternative reality as a coping strategy, she envisions a plan which will help her escape from the facility. 



Format : BDAV
Format/Info : Blu-ray Video
File size : 3.99 GiB
Duration : 1h 49mn
Overall bit rate : 5 209 Kbps
Maximum Overall bit rate : 35.5 Mbps

Video
ID : 4113 (0x1011)
Menu ID : 1 (0x1)
Format : AVC
Format/Info : Advanced Video Codec
Format profile : High@L4.0
Format settings, CABAC : Yes
Format settings, ReFrames : 3 frames
Codec ID : 27
Duration : 1h 49mn
Bit rate mode : Variable
Bit rate : 4 252 Kbps
Maximum bit rate : 25.0 Mbps
Width : 1 920 pixels
Height : 1 080 pixels
Display aspect ratio : 16:9
Frame rate : 23.976 fps
Color space : YUV
Chroma subsampling : 4:2:0
Bit depth : 8 bits
Scan type : Progressive
Bits/(Pixel*Frame) : 0.086
Stream size : 3.34 GiB (84%)
Writing library : x264

Audio
ID : 4352 (0x1100)
Menu ID : 1 (0x1)
Format : AC-3
Format/Info : Audio Coding 3
Mode extension : CM (complete main)
Codec ID : 129
Duration : 1h 49mn
Bit rate mode : Constant
Bit rate : 640 Kbps
Channel(s) : 6 channels
Channel positions : Front: L C R, Side: L R, LFE
Sampling rate : 48.0 KHz
Bit depth : 16 bits
Compression mode : Lossy
Stream size : 502 MiB (12%)
Language : English
